name C:\Users\antoi\Documents\MyRepositories\upper-imu-dc\OpenSim\subject0\MA\train_motion_filt.mot
datacolumns 10
datarows 52
range 33.50000000 34.01000000
endheader 
time	clav_prot	clav_elev	scapula_abduction	scapula_elevation	scapula_upward_rot	scapula_winging	plane_elv	shoulder_elv	axial_rot	
         33.50000000	        -24.70386694	          3.79200336	          5.90016742	         -4.43036171	         46.80794343	         -4.30494666	         61.97618155	         60.33914659	        -14.44962637	
         33.51000000	        -24.82526991	          3.99077791	          6.00261289	         -4.33911470	         47.25936755	         -4.42385115	         61.93151190	         60.77646493	        -14.40098791	
         33.52000000	        -24.94481831	          4.17831478	          6.10549023	         -4.25406869	         47.70294664	         -4.53721781	         61.86419906	         61.20711324	        -14.37319085	
         33.53000000	        -25.06033919	          4.35073643	          6.20928366	         -4.17738689	         48.13336642	         -4.64334458	         61.77143579	         61.63319749	        -14.36761241	
         33.54000000	        -25.16983493	          4.50516002	          6.31514127	         -4.11068090	         48.54682454	         -4.74099650	         61.65138685	         62.05841404	        -14.38915103	
         33.55000000	        -25.27261341	          4.64095637	          6.42369702	         -4.05431145	         48.94243917	         -4.82997303	         61.50590481	         62.48696708	        -14.44366479	
         33.56000000	        -25.36973186	          4.75972216	          6.53408520	         -4.00740579	         49.32199440	         -4.91108143	         61.34129306	         62.92266757	        -14.53254358	
         33.57000000	        -25.46370337	          4.86476365	          6.64377268	         -3.96811126	         49.68893403	         -4.98584879	         61.16706694	         63.36759663	        -14.64605913	
         33.58000000	        -25.55792759	          4.96165129	          6.74919550	         -3.93313899	         50.04808356	         -5.05657436	         60.99417115	         63.82081914	        -14.75934558	
         33.59000000	        -25.65579412	          5.05908487	          6.84725229	         -3.89710897	         50.40580758	         -5.12649181	         60.83226236	         64.27847076	        -14.83934150	
         33.60000000	        -25.75967906	          5.16728778	          6.93610643	         -3.85348924	         50.76831229	         -5.19910296	         60.68672225	         64.73565220	        -14.85911968	
         33.61000000	        -25.87060841	          5.29405800	          7.01415787	         -3.79711025	         51.13841993	         -5.27681551	         60.55799519	         65.18815541	        -14.80472079	
         33.62000000	        -25.98861943	          5.44161313	          7.07947635	         -3.72633264	         51.51464352	         -5.36008821	         60.44315104	         65.63268842	        -14.67331745	
         33.63000000	        -26.11336432	          5.60630737	          7.13087627	         -3.64346058	         51.89367253	         -5.44768152	         60.33794091	         66.06668625	        -14.47054758	
         33.64000000	        -26.24482890	          5.78185195	          7.16872518	         -3.55277335	         52.27390575	         -5.53788660	         60.23878716	         66.48852028	        -14.20790157	
         33.65000000	        -26.38367764	          5.96385423	          7.19498833	         -3.45751705	         52.65769380	         -5.62990177	         60.14337430	         66.89790051	        -13.90084274	
         33.66000000	        -26.53048334	          6.15021849	          7.21270804	         -3.35944800	         53.04921196	         -5.72368795	         60.04936997	         67.29640731	        -13.56846176	
         33.67000000	        -26.68445170	          6.33697350	          7.22468003	         -3.26132989	         53.44883850	         -5.81835251	         59.95329226	         67.68744473	        -13.23223793	
         33.68000000	        -26.84322091	          6.51577644	          7.23266361	         -3.16853498	         53.85098558	         -5.91134710	         59.85042944	         68.07454770	        -12.91323890	
         33.69000000	        -27.00396159	          6.67595556	          7.23771465	         -3.08788717	         54.24748347	         -5.99935911	         59.73551908	         68.45933172	        -12.62775726	
         33.70000000	        -27.16469408	          6.80804788	          7.24002088	         -3.02549405	         54.63132099	         -6.07959652	         59.60455330	         68.84143294	        -12.38163268	
         33.71000000	        -27.32506484	          6.90630751	          7.23810882	         -2.98512745	         54.99816264	         -6.15055730	         59.45663474	         69.22010014	        -12.16775844	
         33.72000000	        -27.48590221	          6.97065828	          7.22978403	         -2.96686404	         55.34715411	         -6.21241265	         59.29360630	         69.59525209	        -11.97250169	
         33.73000000	        -27.64762429	          7.00772798	          7.21484948	         -2.96625979	         55.68111071	         -6.26697278	         59.11781278	         69.96716401	        -11.78740952	
         33.74000000	        -27.80945695	          7.02841048	          7.19609744	         -2.97592790	         56.00524802	         -6.31692754	         58.93036200	         70.33606512	        -11.61367090	
         33.75000000	        -27.97032180	          7.04275665	          7.17749197	         -2.98905836	         56.32524652	         -6.36472342	         58.73093264	         70.70232594	        -11.45631109	
         33.76000000	        -28.12968023	          7.05696387	          7.16229060	         -3.00150358	         56.64583425	         -6.41193886	         58.51874431	         71.06642963	        -11.31822886	
         33.77000000	        -28.28735315	          7.07442428	          7.15286594	         -3.01102677	         56.97053649	         -6.45947612	         58.29366515	         71.42902304	        -11.20045638	
         33.78000000	        -28.44303878	          7.09814847	          7.15143255	         -3.01561243	         57.30230366	         -6.50806693	         58.05667410	         71.79145951	        -11.10524574	
         33.79000000	        -28.59613070	          7.13138690	          7.16034828	         -3.01303533	         57.64368848	         -6.55840140	         57.80978460	         72.15575048	        -11.03665019	
         33.80000000	        -28.74580422	          7.17643737	          7.18166365	         -3.00167730	         57.99611744	         -6.61085005	         57.55578625	         72.52338536	        -10.99799249	
         33.81000000	        -28.89115574	          7.23369268	          7.21637278	         -2.98117835	         58.35900010	         -6.66524797	         57.29811983	         72.89367988	        -10.98882419	
         33.82000000	        -29.03147722	          7.30146841	          7.26362441	         -2.95257255	         58.72932553	         -6.72090953	         57.04099180	         73.26302515	        -11.00318029	
         33.83000000	        -29.16683635	          7.37600661	          7.32011781	         -2.91834595	         59.10217157	         -6.77677849	         56.78901057	         73.62668140	        -11.03047459	
         33.84000000	        -29.29834727	          7.45201217	          7.38066400	         -2.88212184	         59.47210338	         -6.83166275	         56.54543152	         73.98226505	        -11.05883255	
         33.85000000	        -29.42733681	          7.52398698	          7.44037736	         -2.84770837	         59.83442755	         -6.88441311	         56.31008294	         74.33130482	        -11.07796623	
         33.86000000	        -29.55416387	          7.58756573	          7.49681919	         -2.81809782	         60.18566246	         -6.93399382	         56.07922674	         74.67779259	        -11.08034181	
         33.87000000	        -29.67817308	          7.64057280	          7.55033795	         -2.79473372	         60.52417133	         -6.97971267	         55.84757015	         75.02636279	        -11.06266700	
         33.88000000	        -29.79866210	          7.68363169	          7.60290446	         -2.77716190	         60.85100645	         -7.02156600	         55.61062056	         75.38139002	        -11.02772467	
         33.89000000	        -29.91569392	          7.71929737	          7.65657616	         -2.76367777	         61.16953023	         -7.06020566	         55.36563258	         75.74608561	        -10.98316086	
         33.90000000	        -30.03024738	          7.75020406	          7.71241129	         -2.75259539	         61.48387215	         -7.09653218	         55.11128590	         76.12109234	        -10.93689148	
         33.91000000	        -30.14388962	          7.77801930	          7.76987075	         -2.74292955	         61.79721293	         -7.13136915	         54.84792854	         76.50344521	        -10.89331337	
         33.92000000	        -30.25850042	          7.80368486	          7.82641444	         -2.73420257	         62.11080908	         -7.16544797	         54.57844998	         76.88793728	        -10.85292775	
         33.93000000	        -30.37611318	          7.82884092	          7.87811924	         -2.72545393	         62.42482660	         -7.19969267	         54.30768164	         77.27079580	        -10.81465001	
         33.94000000	        -30.49838644	          7.85713209	          7.92135044	         -2.71431052	         62.73960130	         -7.23539193	         54.04016249	         77.65211421	        -10.77833031	
         33.95000000	        -30.62613667	          7.89281055	          7.95345545	         -2.69792291	         63.05504649	         -7.27377764	         53.77836927	         78.03489216	        -10.74430413	
         33.96000000	        -30.75959915	          7.93773071	          7.97214637	         -2.67505945	         63.36954784	         -7.31541948	         53.52258741	         78.42213599	        -10.71060923	
         33.97000000	        -30.89892776	          7.99037701	          7.97537158	         -2.64681081	         63.68055812	         -7.36013281	         53.27206154	         78.81468752	        -10.67259108	
         33.98000000	        -31.04443046	          8.04697096	          7.96190931	         -2.61583757	         63.98612672	         -7.40728156	         53.02643767	         79.21119439	        -10.62566226	
         33.99000000	        -31.19664594	          8.10292591	          7.93141144	         -2.58537040	         64.28555839	         -7.45611719	         52.78638625	         79.60945177	        -10.56731181	
         34.00000000	        -31.35625382	          8.15453118	          7.88361427	         -2.55804889	         64.57881717	         -7.50612927	         52.55302886	         80.00775439	        -10.49708839	
         34.01000000	        -31.52386756	          8.20051854	          7.81768019	         -2.53483313	         64.86580350	         -7.55733481	         52.32706594	         80.40548711	        -10.41578915	
